<?xml version="1.0" standalone="no"?>
<!DOCTYPE svg PUBLIC "-//W3C//DTD SVG 20010904//EN"
 "http://www.w3.org/TR/2001/REC-SVG-20010904/DTD/svg10.dtd">
<svg version="1.0" xmlns="http://www.w3.org/2000/svg"
 width="260.000000pt" height="260.000000pt" viewBox="0 0 260.000000 260.000000"
 preserveAspectRatio="xMidYMid meet">
<metadata>
Created by potrace 1.14, written by Peter Selinger 2001-2017
</metadata>
<g transform="translate(0.000000,260.000000) scale(0.100000,-0.100000)"
fill="#000000" stroke="none">
<path d="M873 2042 c-4 -15 -16 -21 -60 -25 -30 -3 -58 -8 -61 -12 -3 -3 4
-29 16 -57 12 -28 21 -52 19 -52 -1 -1 -24 -12 -51 -24 -26 -13 -49 -22 -50
-20 -1 2 -11 23 -21 48 -10 25 -22 49 -26 54 -4 4 -65 -49 -136 -118 -168
-167 -205 -186 -372 -195 -66 -4 -122 -9 -125 -12 -3 -2 50 -127 116 -277
l120 -272 32 1 c30 2 30 2 3 6 -27 4 -45 29 -62 81 -7 23 -5 23 56 20 l63 -3
20 -50 c11 -27 20 -51 22 -53 3 -5 101 10 114 18 9 6 7 19 -9 55 -12 26 -21
49 -21 51 0 2 22 14 50 28 l50 25 20 -47 c11 -25 18 -52 16 -59 -11 -27 30 7
149 124 85 83 137 126 177 146 67 32 177 51 195 34 6 -7 44 -84 83 -172 l71
-159 -127 -279 c-118 -259 -126 -280 -110 -295 12 -12 21 -14 32 -7 12 8 127
255 220 475 l15 35 112 -255 c89 -202 116 -255 131 -255 47 0 40 25 -87 304
l-124 275 14 35 c37 91 127 287 137 298 17 17 131 -2 195 -34 36 -17 97 -67
180 -148 69 -67 137 -127 151 -134 23 -11 23 -11 7 3 -18 14 -18 16 3 64 l22
50 49 -21 c26 -12 49 -26 49 -32 0 -5 -9 -30 -21 -54 -14 -32 -16 -46 -8 -52
12 -7 110 -22 113 -17 1 2 13 27 26 56 l23 52 63 0 63 0 -22 -49 c-14 -31 -29
-51 -42 -54 -15 -3 -14 -4 4 -3 21 1 36 29 142 270 66 148 117 272 114 275 -3
3 -59 8 -123 12 -166 9 -199 26 -371 193 l-135 130 -24 -54 c-29 -66 -28 -66
-45 -51 -8 6 -30 17 -50 24 l-37 12 25 54 c14 30 24 55 22 57 -2 2 -31 7 -64
10 -49 5 -62 11 -66 26 -4 12 -12 18 -24 16 -13 -2 -69 -119 -208 -431 -168
-378 -205 -453 -205 -418 0 9 -305 698 -356 806 -21 44 -52 58 -61 27z m65
-188 c13 -26 22 -47 20 -49 -2 -1 -28 -5 -59 -9 l-57 -6 -20 47 c-24 56 -19
63 49 63 44 0 46 -1 67 -46z m856 37 c3 -5 -4 -30 -15 -56 -20 -44 -23 -47
-51 -41 -17 3 -43 6 -58 6 l-28 0 21 50 21 50 52 0 c29 0 55 -4 58 -9z m-1241
-167 c-21 -24 -40 -44 -43 -44 -4 0 -15 21 -26 48 l-20 47 40 49 40 49 23 -52
23 -52 -37 -45z m1551 95 c35 -41 35 -42 20 -78 -9 -20 -18 -42 -21 -48 -8
-19 -14 -15 -56 32 l-38 43 23 46 c12 25 25 46 29 46 4 0 23 -19 43 -41z
m-1395 -29 l21 -49 -37 -35 c-21 -20 -42 -36 -46 -36 -4 0 -17 21 -29 46 l-20
46 38 39 c21 21 41 39 45 39 4 0 16 -22 28 -50z m1255 16 l40 -34 -13 -40
c-23 -68 -25 -69 -74 -28 l-45 37 21 49 c12 28 23 50 26 50 4 -1 24 -16 45
-34z m-1100 -75 l25 -49 -47 -18 c-26 -11 -50 -20 -54 -22 -5 -3 -48 81 -48
95 0 5 81 42 92 43 4 0 19 -22 32 -49z m969 22 c15 -7 27 -18 27 -24 0 -11
-38 -89 -44 -89 -7 0 -96 41 -96 45 0 2 9 24 20 50 21 50 28 51 93 18z m-798
-113 l25 -50 -22 -4 c-13 -3 -39 -7 -60 -8 -34 -4 -37 -1 -57 39 -28 57 -27
61 12 66 76 9 75 10 102 -43z m664 34 c2 -2 -5 -25 -16 -51 l-19 -47 -50 3
c-27 1 -52 6 -57 10 -4 4 2 29 14 55 l21 48 51 -7 c29 -4 54 -9 56 -11z m615
-85 c-13 -27 -27 -49 -30 -49 -7 0 -67 31 -81 42 -10 8 -7 21 12 58 l24 47 50
-24 50 -25 -25 -49z m-1923 45 c11 -26 18 -48 17 -49 -7 -6 -88 -45 -93 -45
-5 0 -45 85 -45 96 0 6 74 43 88 44 7 0 22 -21 33 -46z m139 -20 c11 -25 17
-52 13 -59 -9 -14 -68 -65 -76 -65 -4 0 -16 21 -27 47 l-21 48 43 37 c24 21
44 38 46 38 1 0 12 -21 22 -46z m1614 7 l38 -39 -23 -52 -24 -51 -42 43 -42
43 21 48 c11 26 24 47 27 47 4 0 24 -18 45 -39z m-1484 -11 c11 -21 20 -45 20
-52 0 -7 -17 -33 -38 -57 l-38 -44 -22 52 -23 52 38 44 c21 24 39 44 40 45 2
0 12 -18 23 -40z m1380 -51 c0 -4 -9 -28 -21 -54 l-21 -48 -39 44 c-21 24 -38
47 -39 51 0 3 9 28 21 55 l21 48 38 -45 c22 -25 40 -48 40 -51z m-1882 16 c12
-25 22 -48 22 -50 0 -3 -27 -5 -60 -5 -63 0 -73 8 -94 78 -7 21 -5 22 51 22
l59 0 22 -45z m646 2 c9 -23 16 -46 16 -50 0 -8 -72 -76 -81 -77 -3 0 -14 22
-26 50 l-21 49 39 36 c21 19 43 35 48 35 4 0 16 -19 25 -43z m1068 6 l37 -38
-21 -47 c-11 -27 -24 -48 -27 -48 -4 0 -25 18 -46 40 l-39 40 22 45 c12 25 25
45 30 45 4 0 24 -17 44 -37z m695 -13 l-21 -50 -62 0 -63 0 21 50 21 50 62 0
63 0 -21 -50z m-1606 -56 c11 -26 18 -48 17 -49 -2 -1 -25 -12 -51 -23 l-48
-21 -19 42 c-27 57 -25 63 18 80 55 23 61 21 83 -29z m769 26 l40 -20 -25 -50
-25 -49 -47 21 c-27 11 -49 22 -51 23 -8 7 44 95 55 95 8 0 32 -9 53 -20z
m-1401 -56 c12 -26 19 -50 14 -54 -4 -4 -29 -11 -55 -14 l-47 -7 -26 51 c-28
55 -27 56 35 63 19 2 40 5 46 5 5 1 20 -19 33 -44z m2068 31 c9 -3 6 -18 -9
-55 l-21 -51 -51 6 c-28 4 -54 9 -58 11 -3 2 3 26 15 54 l21 49 45 -5 c25 -3
51 -7 58 -9z m-1910 -95 l21 -50 -49 -26 -50 -25 -24 52 -24 52 47 23 c26 12
49 23 53 23 3 1 15 -22 26 -49z m1708 26 c22 -10 41 -19 43 -21 1 -1 -7 -23
-18 -49 -12 -25 -19 -50 -16 -55 4 -5 29 -12 56 -16 55 -8 57 -12 23 -77 -14
-29 -29 -33 -94 -22 l-37 6 24 54 24 54 -50 21 c-28 12 -50 28 -50 36 0 20 40
95 48 91 4 -2 25 -12 47 -22z m-1568 -51 c10 -25 21 -45 24 -45 4 0 23 18 43
40 20 22 38 40 41 40 3 0 15 -21 26 -46 21 -50 21 -50 -30 -106 -14 -16 -28
-28 -32 -28 -3 0 -14 20 -23 45 -10 25 -20 45 -23 45 -3 0 -23 -16 -45 -35
-23 -19 -44 -32 -49 -30 -4 3 -15 26 -25 50 l-17 45 39 35 c21 19 42 34 46 35
3 0 14 -20 25 -45z m1419 10 l43 -36 -22 -47 c-12 -26 -23 -49 -24 -51 -4 -6
-83 63 -83 73 0 15 32 96 38 96 3 0 24 -16 48 -35z m-134 -18 l36 -43 -20 -47
c-11 -26 -24 -47 -28 -47 -4 0 -24 20 -44 44 l-36 45 22 45 c12 25 25 46 28
46 3 0 22 -19 42 -43z m-1662 -19 c30 -66 28 -69 -37 -66 -58 3 -58 3 -80 48
-12 25 -22 48 -22 53 -1 4 26 7 59 7 l61 0 19 -42z m2240 36 c0 -3 -10 -28
-21 -55 l-21 -49 -59 0 c-33 0 -59 4 -59 9 0 5 9 29 20 55 l21 46 59 0 c33 0
60 -3 60 -6z m-2065 -136 l25 -53 -23 -7 c-12 -3 -38 -6 -58 -7 -32 -1 -37 3
-57 45 -13 26 -22 48 -20 49 2 1 26 7 53 13 28 5 51 10 53 11 2 0 14 -23 27
-51z"/>
<path d="M700 1990 c-18 -12 -2 -12 25 0 13 6 15 9 5 9 -8 0 -22 -4 -30 -9z"/>
</g>
</svg>
